# xmcd CD database file
#
# Track frame offsets:
#	150
#	15792
#	38104
#	49100
#	68077
#	93084
#	120532
#	131494
#	146445
#	168324
#	187033
#	219463
#
# Disc length: 3144 seconds
#
# Revision: 6
# Processed by: cddbd v1.5.2PL0 Copyright (c) Steve Scherf et al.
# Submitted via: CDex 1.70beta2
#
DISCID=990c460c
DTITLE=Various Artist - Best Jazz 100 (Disc4)
DYEAR=2006
DGENRE=Jazz
TTITLE0=Beyond The Sea - 小林桂
TTITLE1=Pretty World - Earl Klugh
TTITLE2=Lullaby Of Birdland - George Shearing
TTITLE3=Dear Old Stockholm - Miles Davis
TTITLE4=Cantaloupe Island - Herbie Hancock
TTITLE5=Don’t Explain - Dexter Gordon
TTITLE6=Let It Snow！ Let It Snow！ Let It Snow！ - Lena Horne
TTITLE7=A Sinner Kissed An Angel - Bud Shank
TTITLE8=There Is The Bomb - Don Cherry
TTITLE9=Time After Time - Cassandra Wilson
TTITLE10=Besame Mucho - Grant Green
TTITLE11=Tennessee Waltz - Holly Cole
EXTD=YEAR: 2006
EXTT0=
EXTT1=
EXTT2=
EXTT3=
EXTT4=
EXTT5=
EXTT6=
EXTT7=
EXTT8=
EXTT9=
EXTT10=
EXTT11=
PLAYORDER=
